<svg xmlns="http://www.w3.org/2000/svg" xmlns:xlink="http://www.w3.org/1999/xlink" width="500" zoomAndPan="magnify" viewBox="0 0 375 374.999991" height="500" preserveAspectRatio="xMidYMid meet" version="1.0"><defs><g/><clipPath id="5b10f33c0a"><path d="M 139.4375 130.777344 L 235.4375 130.777344 L 235.4375 206.523438 L 139.4375 206.523438 Z M 139.4375 130.777344 " clip-rule="nonzero"/></clipPath><clipPath id="409eb9a11c"><path d="M 161.9375 130.777344 L 213.058594 130.777344 C 225.480469 130.777344 235.554688 140.847656 235.554688 153.273438 L 235.554688 183.746094 C 235.554688 196.171875 225.480469 206.242188 213.058594 206.242188 L 161.9375 206.242188 C 149.511719 206.242188 139.4375 196.171875 139.4375 183.746094 L 139.4375 153.273438 C 139.4375 140.847656 149.511719 130.777344 161.9375 130.777344 Z M 161.9375 130.777344 " clip-rule="nonzero"/></clipPath><clipPath id="5fb9298561"><path d="M 168.324219 149.335938 L 206.574219 149.335938 L 206.574219 168.507812 L 168.324219 168.507812 Z M 168.324219 149.335938 " clip-rule="nonzero"/></clipPath><clipPath id="0c89dd27bf"><path d="M 119.425781 221.160156 L 157.675781 221.160156 L 157.675781 240.332031 L 119.425781 240.332031 Z M 119.425781 221.160156 " clip-rule="nonzero"/></clipPath></defs><g clip-path="url(#5b10f33c0a)"><g clip-path="url(#409eb9a11c)"><path stroke-linecap="butt" transform="matrix(0.75, 0, 0, 0.75, 139.438107, 130.775603)" fill="none" stroke-linejoin="miter" d="M 29.999191 0.00232152 L 98.16065 0.00232152 C 114.72315 0.00232152 128.155441 13.429405 128.155441 29.997113 L 128.155441 70.627322 C 128.155441 87.19503 114.72315 100.622113 98.16065 100.622113 L 29.999191 100.622113 C 13.431483 100.622113 -0.000808725 87.19503 -0.000808725 70.627322 L -0.000808725 29.997113 C -0.000808725 13.429405 13.431483 0.00232152 29.999191 0.00232152 Z M 29.999191 0.00232152 " stroke="#f2aa52" stroke-width="30" stroke-opacity="1" stroke-miterlimit="4"/></g></g><g clip-path="url(#5fb9298561)"><path fill="#f26666" d="M 179.210938 149.335938 L 168.324219 149.335938 C 168.324219 159.921875 176.910156 168.507812 187.496094 168.507812 C 198.082031 168.507812 206.667969 159.921875 206.667969 149.335938 L 195.792969 149.335938 C 195.769531 153.890625 192.058594 157.578125 187.496094 157.578125 C 182.9375 157.578125 179.234375 153.890625 179.210938 149.335938 Z M 179.210938 149.335938 " fill-opacity="1" fill-rule="nonzero"/></g><g clip-path="url(#0c89dd27bf)"><path fill="#f26666" d="M 130.3125 221.160156 L 119.425781 221.160156 C 119.425781 231.746094 128.011719 240.332031 138.597656 240.332031 C 149.183594 240.332031 157.769531 231.746094 157.769531 221.160156 L 146.894531 221.160156 C 146.871094 225.714844 143.160156 229.402344 138.597656 229.402344 C 134.039062 229.402344 130.335938 225.714844 130.3125 221.160156 Z M 130.3125 221.160156 " fill-opacity="1" fill-rule="nonzero"/></g><g fill="#f26666" fill-opacity="1"><g transform="translate(92.586891, 243.498325)"><g><path d="M 20.234375 -14.484375 C 21.890625 -14.109375 23.203125 -13.285156 24.171875 -12.015625 C 25.148438 -10.753906 25.640625 -9.3125 25.640625 -7.6875 C 25.640625 -5.28125 24.8125 -3.394531 23.15625 -2.03125 C 21.507812 -0.675781 19.191406 0 16.203125 0 L 2.234375 0 L 2.234375 -28.203125 L 15.765625 -28.203125 C 18.640625 -28.203125 20.894531 -27.5625 22.53125 -26.28125 C 24.175781 -25 25 -23.195312 25 -20.875 C 25 -19.226562 24.566406 -17.847656 23.703125 -16.734375 C 22.835938 -15.628906 21.679688 -14.878906 20.234375 -14.484375 Z M 10.078125 -17 L 14.046875 -17 C 16.015625 -17 17 -17.8125 17 -19.4375 C 17 -21.113281 16.015625 -21.953125 14.046875 -21.953125 L 10.078125 -21.953125 Z M 14.640625 -6.3125 C 16.609375 -6.3125 17.59375 -7.140625 17.59375 -8.796875 C 17.59375 -9.648438 17.332031 -10.300781 16.8125 -10.75 C 16.300781 -11.207031 15.5625 -11.4375 14.59375 -11.4375 L 10.078125 -11.4375 L 10.078125 -6.3125 Z M 14.640625 -6.3125 "/></g></g></g><g fill="#f26666" fill-opacity="1"><g transform="translate(158.52562, 243.498325)"><g><path d="M 26.40625 -22.4375 L 12.15625 10.6875 L 3.640625 10.6875 L 9 -0.953125 L -0.203125 -22.4375 L 8.515625 -22.4375 L 13.234375 -9.71875 L 17.796875 -22.4375 Z M 26.40625 -22.4375 "/></g></g></g><g fill="#f26666" fill-opacity="1"><g transform="translate(184.723021, 243.498325)"><g><path d="M 41.953125 -28.203125 L 35.046875 0 L 25.40625 0 L 21.515625 -17.28125 L 17.5625 0 L 7.921875 0 L 1.078125 -28.203125 L 9.5625 -28.203125 L 12.84375 -8.921875 L 17.28125 -28.203125 L 25.875 -28.203125 L 30.203125 -9.078125 L 33.484375 -28.203125 Z M 41.953125 -28.203125 "/></g></g></g><g fill="#66abf2" fill-opacity="1"><g transform="translate(227.75999, 243.498325)"><g><path d="M 6.203125 -24.515625 C 4.816406 -24.515625 3.703125 -24.894531 2.859375 -25.65625 C 2.015625 -26.414062 1.59375 -27.367188 1.59375 -28.515625 C 1.59375 -29.691406 2.015625 -30.664062 2.859375 -31.4375 C 3.703125 -32.207031 4.816406 -32.59375 6.203125 -32.59375 C 7.554688 -32.59375 8.65625 -32.207031 9.5 -31.4375 C 10.34375 -30.664062 10.765625 -29.691406 10.765625 -28.515625 C 10.765625 -27.367188 10.34375 -26.414062 9.5 -25.65625 C 8.65625 -24.894531 7.554688 -24.515625 6.203125 -24.515625 Z M 10.078125 -22.4375 L 10.078125 0 L 2.234375 0 L 2.234375 -22.4375 Z M 10.078125 -22.4375 "/></g></g></g><g fill="#66abf2" fill-opacity="1"><g transform="translate(240.078765, 243.498325)"><g><path d="M 11.796875 0.28125 C 9.773438 0.28125 7.96875 -0.0546875 6.375 -0.734375 C 4.789062 -1.421875 3.535156 -2.351562 2.609375 -3.53125 C 1.691406 -4.71875 1.179688 -6.0625 1.078125 -7.5625 L 8.6875 -7.5625 C 8.789062 -6.84375 9.117188 -6.28125 9.671875 -5.875 C 10.234375 -5.476562 10.929688 -5.28125 11.765625 -5.28125 C 12.398438 -5.28125 12.90625 -5.410156 13.28125 -5.671875 C 13.65625 -5.941406 13.84375 -6.289062 13.84375 -6.71875 C 13.84375 -7.28125 13.535156 -7.691406 12.921875 -7.953125 C 12.304688 -8.222656 11.289062 -8.519531 9.875 -8.84375 C 8.28125 -9.15625 6.945312 -9.507812 5.875 -9.90625 C 4.8125 -10.3125 3.882812 -10.96875 3.09375 -11.875 C 2.3125 -12.78125 1.921875 -14.007812 1.921875 -15.5625 C 1.921875 -16.894531 2.28125 -18.097656 3 -19.171875 C 3.71875 -20.253906 4.773438 -21.113281 6.171875 -21.75 C 7.578125 -22.394531 9.265625 -22.71875 11.234375 -22.71875 C 14.171875 -22.71875 16.476562 -22 18.15625 -20.5625 C 19.84375 -19.125 20.816406 -17.226562 21.078125 -14.875 L 14 -14.875 C 13.863281 -15.59375 13.546875 -16.144531 13.046875 -16.53125 C 12.554688 -16.925781 11.898438 -17.125 11.078125 -17.125 C 10.441406 -17.125 9.957031 -17.003906 9.625 -16.765625 C 9.289062 -16.523438 9.125 -16.191406 9.125 -15.765625 C 9.125 -15.222656 9.425781 -14.8125 10.03125 -14.53125 C 10.644531 -14.257812 11.632812 -13.976562 13 -13.6875 C 14.625 -13.332031 15.976562 -12.941406 17.0625 -12.515625 C 18.144531 -12.085938 19.09375 -11.398438 19.90625 -10.453125 C 20.71875 -9.515625 21.125 -8.226562 21.125 -6.59375 C 21.125 -5.289062 20.742188 -4.117188 19.984375 -3.078125 C 19.222656 -2.035156 18.140625 -1.210938 16.734375 -0.609375 C 15.335938 -0.015625 13.691406 0.28125 11.796875 0.28125 Z M 11.796875 0.28125 "/></g></g></g><g fill="#f26666" fill-opacity="1"><g transform="translate(262.79905, 243.498325)"><g><path d="M 23.6875 -11.484375 C 23.6875 -10.867188 23.644531 -10.253906 23.5625 -9.640625 L 8.71875 -9.640625 C 8.800781 -8.410156 9.140625 -7.492188 9.734375 -6.890625 C 10.335938 -6.296875 11.109375 -6 12.046875 -6 C 13.347656 -6 14.28125 -6.585938 14.84375 -7.765625 L 23.203125 -7.765625 C 22.859375 -6.210938 22.1875 -4.828125 21.1875 -3.609375 C 20.1875 -2.398438 18.925781 -1.445312 17.40625 -0.75 C 15.882812 -0.0625 14.203125 0.28125 12.359375 0.28125 C 10.148438 0.28125 8.179688 -0.179688 6.453125 -1.109375 C 4.734375 -2.046875 3.382812 -3.378906 2.40625 -5.109375 C 1.4375 -6.847656 0.953125 -8.890625 0.953125 -11.234375 C 0.953125 -13.585938 1.429688 -15.625 2.390625 -17.34375 C 3.359375 -19.0625 4.703125 -20.382812 6.421875 -21.3125 C 8.140625 -22.25 10.117188 -22.71875 12.359375 -22.71875 C 14.578125 -22.71875 16.535156 -22.265625 18.234375 -21.359375 C 19.941406 -20.453125 21.273438 -19.148438 22.234375 -17.453125 C 23.203125 -15.765625 23.6875 -13.773438 23.6875 -11.484375 Z M 15.6875 -13.4375 C 15.6875 -14.394531 15.363281 -15.144531 14.71875 -15.6875 C 14.082031 -16.238281 13.28125 -16.515625 12.3125 -16.515625 C 11.351562 -16.515625 10.566406 -16.253906 9.953125 -15.734375 C 9.347656 -15.210938 8.953125 -14.445312 8.765625 -13.4375 Z M 15.6875 -13.4375 "/></g></g></g></svg>