<svg xmlns="http://www.w3.org/2000/svg" xmlns:xlink="http://www.w3.org/1999/xlink" width="500" zoomAndPan="magnify" viewBox="0 0 375 374.999991" height="500" preserveAspectRatio="xMidYMid meet" version="1.0"><defs><g/><clipPath id="5cc507f567"><path d="M 111.191406 55.203125 L 294.941406 55.203125 L 294.941406 199.953125 L 111.191406 199.953125 Z M 111.191406 55.203125 " clip-rule="nonzero"/></clipPath><clipPath id="6bbd509979"><path d="M 133.691406 55.203125 L 272.675781 55.203125 C 285.101562 55.203125 295.171875 65.277344 295.171875 77.703125 L 295.171875 177.160156 C 295.171875 189.585938 285.101562 199.660156 272.675781 199.660156 L 133.691406 199.660156 C 121.265625 199.660156 111.191406 189.585938 111.191406 177.160156 L 111.191406 77.703125 C 111.191406 65.277344 121.265625 55.203125 133.691406 55.203125 Z M 133.691406 55.203125 " clip-rule="nonzero"/></clipPath><clipPath id="a75c53529a"><path d="M 166.484375 90.734375 L 239.984375 90.734375 L 239.984375 127.425781 L 166.484375 127.425781 Z M 166.484375 90.734375 " clip-rule="nonzero"/></clipPath><clipPath id="38b23f8147"><path d="M 54.246094 233.953125 L 127.746094 233.953125 L 127.746094 270.644531 L 54.246094 270.644531 Z M 54.246094 233.953125 " clip-rule="nonzero"/></clipPath></defs><rect x="-37.5" width="450" fill="#ffffff" y="-37.499999" height="449.999989" fill-opacity="1"/><rect x="-37.5" width="450" fill="#ffffff" y="-37.499999" height="449.999989" fill-opacity="1"/><g clip-path="url(#5cc507f567)"><g clip-path="url(#6bbd509979)"><path stroke-linecap="butt" transform="matrix(0.75, 0, 0, 0.75, 111.190896, 55.203395)" fill="none" stroke-linejoin="miter" d="M 30.000681 -0.0003597 L 215.313181 -0.0003597 C 231.88089 -0.0003597 245.307973 13.431932 245.307973 29.99964 L 245.307973 162.609016 C 245.307973 179.176724 231.88089 192.609016 215.313181 192.609016 L 30.000681 192.609016 C 13.432973 192.609016 0.000680869 179.176724 0.000680869 162.609016 L 0.000680869 29.99964 C 0.000680869 13.431932 13.432973 -0.0003597 30.000681 -0.0003597 Z M 30.000681 -0.0003597 " stroke="#f2aa52" stroke-width="30" stroke-opacity="1" stroke-miterlimit="4"/></g></g><g clip-path="url(#a75c53529a)"><path fill="#f26666" d="M 187.324219 90.734375 L 166.492188 90.734375 C 166.492188 110.992188 182.921875 127.425781 203.183594 127.425781 C 223.441406 127.425781 239.875 110.992188 239.875 90.734375 L 219.054688 90.734375 C 219.007812 99.449219 211.914062 106.503906 203.183594 106.503906 C 194.449219 106.503906 187.367188 99.449219 187.324219 90.734375 Z M 187.324219 90.734375 " fill-opacity="1" fill-rule="nonzero"/></g><g clip-path="url(#38b23f8147)"><path fill="#f26666" d="M 75.085938 233.953125 L 54.253906 233.953125 C 54.253906 254.214844 70.683594 270.644531 90.945312 270.644531 C 111.203125 270.644531 127.636719 254.214844 127.636719 233.953125 L 106.816406 233.953125 C 106.773438 242.671875 99.675781 249.722656 90.945312 249.722656 C 82.214844 249.722656 75.132812 242.671875 75.085938 233.953125 Z M 75.085938 233.953125 " fill-opacity="1" fill-rule="nonzero"/></g><g fill="#f26666" fill-opacity="1"><g transform="translate(0.0000045, 283.983589)"><g><path d="M 48.671875 -46.6875 C 48.671875 -40.445312 45.96875 -35.707031 40.5625 -32.46875 C 43.507812 -31.394531 45.96875 -29.535156 47.9375 -26.890625 C 49.914062 -24.253906 50.90625 -20.519531 50.90625 -15.6875 C 50.90625 -10.863281 49.117188 -7.039062 45.546875 -4.21875 C 41.984375 -1.40625 36.875 0 30.21875 0 L 9 0 C 7.976562 0 7.132812 -0.34375 6.46875 -1.03125 C 5.8125 -1.71875 5.484375 -2.632812 5.484375 -3.78125 L 5.484375 -61.34375 C 5.484375 -62.007812 5.585938 -62.445312 5.796875 -62.65625 C 6.003906 -62.863281 6.441406 -62.96875 7.109375 -62.96875 L 27.609375 -62.96875 C 41.648438 -62.96875 48.671875 -57.539062 48.671875 -46.6875 Z M 22.765625 -48.390625 L 22.765625 -36.609375 L 23.203125 -36.609375 C 28.960938 -36.609375 31.84375 -38.53125 31.84375 -42.375 C 31.84375 -44.46875 31.285156 -45.992188 30.171875 -46.953125 C 29.066406 -47.910156 27.222656 -48.390625 24.640625 -48.390625 Z M 22.765625 -26 L 22.765625 -14.296875 L 24.375 -14.296875 C 26.957031 -14.296875 28.847656 -14.773438 30.046875 -15.734375 C 31.242188 -16.703125 31.84375 -18.234375 31.84375 -20.328125 C 31.84375 -22.429688 31.285156 -23.898438 30.171875 -24.734375 C 29.066406 -25.578125 27.222656 -26 24.640625 -26 Z M 22.765625 -26 "/></g></g></g><g fill="#66abf2" fill-opacity="1"><g transform="translate(178.799096, 286.854714)"><g><path d="M 1.890625 -62.0625 C 1.710938 -62.726562 4.738281 -63.0625 10.96875 -63.0625 C 17.863281 -63.0625 21.40625 -62.488281 21.59375 -61.34375 L 26 -23.484375 L 35.53125 -61.796875 C 35.832031 -62.691406 38.171875 -63.140625 42.546875 -63.140625 C 46.921875 -63.140625 49.257812 -62.722656 49.5625 -61.890625 L 58.921875 -23.296875 L 64.140625 -61.53125 C 64.253906 -62.1875 65.628906 -62.632812 68.265625 -62.875 C 70.910156 -63.113281 73.039062 -63.234375 74.65625 -63.234375 C 80.957031 -63.234375 84.019531 -62.816406 83.84375 -61.984375 L 72.953125 -2.34375 C 72.710938 -1.4375 71.003906 -0.773438 67.828125 -0.359375 C 64.648438 0.0546875 62.070312 0.265625 60.09375 0.265625 C 52.65625 0.265625 48.753906 -0.570312 48.390625 -2.25 L 42.28125 -26.984375 L 35.625 -2.34375 C 35.382812 -1.257812 33.285156 -0.476562 29.328125 0 C 27.285156 0.175781 25.242188 0.265625 23.203125 0.265625 L 17.453125 0 C 13.492188 -0.414062 11.394531 -1.164062 11.15625 -2.25 Z M 1.890625 -62.0625 "/></g></g></g><g fill="#66abf2" fill-opacity="1"><g transform="translate(264.519511, 286.854714)"><g><path d="M 20.515625 -0.546875 C 20.515625 -0.0546875 17.769531 0.1875 12.28125 0.1875 C 6.789062 0.1875 4.046875 -0.0234375 4.046875 -0.453125 L 4.046875 -44.609375 C 4.046875 -45.035156 6.789062 -45.25 12.28125 -45.25 C 17.769531 -45.25 20.515625 -45.066406 20.515625 -44.703125 Z M 20.515625 -50.015625 C 20.515625 -49.597656 17.769531 -49.390625 12.28125 -49.390625 C 6.789062 -49.390625 4.046875 -49.566406 4.046875 -49.921875 L 4.046875 -62.875 C 4.046875 -63.476562 6.789062 -63.78125 12.28125 -63.78125 C 17.769531 -63.78125 20.515625 -63.597656 20.515625 -63.234375 Z M 20.515625 -50.015625 "/></g></g></g><g fill="#66abf2" fill-opacity="1"><g transform="translate(289.07531, 286.854714)"><g><path d="M 5.9375 -16.1875 C 10.789062 -13.25 14.628906 -11.78125 17.453125 -11.78125 C 19.253906 -11.78125 20.15625 -12.410156 20.15625 -13.671875 C 20.15625 -14.566406 18.59375 -15.738281 15.46875 -17.1875 C 7.976562 -20.238281 4.234375 -25.242188 4.234375 -32.203125 C 4.234375 -36.640625 5.847656 -40.023438 9.078125 -42.359375 C 12.316406 -44.703125 16.203125 -45.875 20.734375 -45.875 C 25.265625 -45.875 29.101562 -45.394531 32.25 -44.4375 C 35.394531 -43.476562 36.96875 -42.21875 36.96875 -40.65625 C 36.96875 -39.34375 36.320312 -37.601562 35.03125 -35.4375 C 33.75 -33.28125 32.867188 -32.113281 32.390625 -31.9375 C 29.804688 -33.375 27.015625 -34.09375 24.015625 -34.09375 C 22.398438 -34.09375 21.59375 -33.523438 21.59375 -32.390625 C 21.59375 -31.660156 21.90625 -31.039062 22.53125 -30.53125 C 23.164062 -30.03125 24.320312 -29.40625 26 -28.65625 C 27.675781 -27.90625 29.066406 -27.226562 30.171875 -26.625 C 31.285156 -26.03125 32.53125 -25.191406 33.90625 -24.109375 C 36.789062 -21.828125 38.234375 -18.859375 38.234375 -15.203125 C 38.234375 -10.398438 36.640625 -6.515625 33.453125 -3.546875 C 30.273438 -0.578125 25.476562 0.90625 19.0625 0.90625 C 14.8125 0.90625 10.945312 0.1875 7.46875 -1.25 C 3.988281 -2.695312 2.25 -4.679688 2.25 -7.203125 C 2.25 -8.878906 2.648438 -10.644531 3.453125 -12.5 C 4.265625 -14.363281 5.09375 -15.59375 5.9375 -16.1875 Z M 5.9375 -16.1875 "/></g></g></g><g fill="#66abf2" fill-opacity="1"><g transform="translate(329.55189, 286.854714)"><g><path d="M 38.046875 -2.421875 C 34.273438 -0.203125 29.421875 0.90625 23.484375 0.90625 C 17.546875 0.90625 12.535156 -1.117188 8.453125 -5.171875 C 4.378906 -9.222656 2.34375 -14.832031 2.34375 -22 C 2.34375 -29.164062 4.304688 -34.9375 8.234375 -39.3125 C 12.160156 -43.6875 17.117188 -45.875 23.109375 -45.875 C 29.109375 -45.875 33.742188 -44.34375 37.015625 -41.28125 C 40.285156 -38.226562 41.921875 -34.515625 41.921875 -30.140625 C 41.921875 -20.421875 36.34375 -15.5625 25.1875 -15.5625 L 18.984375 -15.5625 C 18.984375 -13.757812 19.476562 -12.515625 20.46875 -11.828125 C 21.457031 -11.140625 22.910156 -10.796875 24.828125 -10.796875 C 29.023438 -10.796875 33.015625 -11.753906 36.796875 -13.671875 C 36.847656 -13.734375 37.113281 -13.3125 37.59375 -12.40625 C 39.039062 -9.832031 39.765625 -7.660156 39.765625 -5.890625 C 39.765625 -4.117188 39.191406 -2.960938 38.046875 -2.421875 Z M 26.8125 -28.421875 C 26.8125 -30.941406 25.582031 -32.203125 23.125 -32.203125 C 21.976562 -32.203125 21 -31.859375 20.1875 -31.171875 C 19.382812 -30.484375 18.984375 -29.476562 18.984375 -28.15625 L 18.984375 -25.359375 L 23.84375 -25.359375 C 25.820312 -25.359375 26.8125 -26.378906 26.8125 -28.421875 Z M 26.8125 -28.421875 "/></g></g></g><g fill="#f26666" fill-opacity="1"><g transform="translate(130.826961, 280.298893)"><g><path d="M 0.90625 -44.53125 C 0.90625 -45.1875 3.644531 -45.515625 9.125 -45.515625 C 14.613281 -45.515625 17.445312 -45.210938 17.625 -44.609375 L 24.109375 -23.390625 L 30.3125 -44.796875 C 30.550781 -45.273438 32.410156 -45.515625 35.890625 -45.515625 C 43.867188 -45.515625 47.675781 -45.125 47.3125 -44.34375 L 26.171875 15.828125 C 26.117188 16.191406 24.488281 16.375 21.28125 16.375 C 18.070312 16.375 15.085938 16.265625 12.328125 16.046875 C 9.566406 15.835938 8.242188 15.585938 8.359375 15.296875 L 16.1875 -3.59375 Z M 0.90625 -44.53125 "/></g></g></g></svg>